<?xml version="1.0" encoding="UTF-8" standalone="no"?>
<!-- Created with Inkscape (http://www.inkscape.org/) -->

<svg
        xmlns:dc="http://purl.org/dc/elements/1.1/"
        xmlns:cc="http://creativecommons.org/ns#"
        xmlns:rdf="http://www.w3.org/1999/02/22-rdf-syntax-ns#"
        xmlns:svg="http://www.w3.org/2000/svg"
        xmlns="http://www.w3.org/2000/svg"
        xmlns:sodipodi="http://sodipodi.sourceforge.net/DTD/sodipodi-0.dtd"
        xmlns:inkscape="http://www.inkscape.org/namespaces/inkscape"
        width="286px"
        height="147px"
        viewBox="0 0 148.78662 83.602051"
        version="1.1"
        id="svg8"
        inkscape:version="0.92.3 (2405546, 2018-03-11)"
        sodipodi:docname="gfbio_logo_claim.eps.svg">
    <defs
            id="defs2">
        <clipPath
                id="clipPath38"
                clipPathUnits="userSpaceOnUse">
            <path
                    inkscape:connector-curvature="0"
                    id="path36"
                    d="m 2767.99,2165.38 c -10.11,-56.83 -80.55,-104.25 -157.22,-97.6 -76.97,7.37 -95.33,41.9 -49.04,78.85 45.71,37.9 106,84.47 148.3,97.16 42.37,12.46 69.08,-22 57.96,-78.41 z"/>
        </clipPath>
        <linearGradient
                id="linearGradient44"
                spreadMethod="pad"
                gradientTransform="matrix(0,-219.607,-219.607,0,2653.55,2284.8)"
                gradientUnits="userSpaceOnUse"
                y2="0"
                x2="1"
                y1="0"
                x1="0">
            <stop
                    id="stop40"
                    offset="0"
                    style="stop-opacity:1;stop-color:#77cb46"/>
            <stop
                    id="stop42"
                    offset="1"
                    style="stop-opacity:1;stop-color:#45bb3a"/>
        </linearGradient>
        <clipPath
                id="clipPath54"
                clipPathUnits="userSpaceOnUse">
            <path
                    inkscape:connector-curvature="0"
                    id="path52"
                    d="m 3143.09,2250.74 c 67.89,-71.09 97.73,-131.51 32.59,-141.51 -63.3,-8.88 -143,42.97 -167.06,111.23 -26.24,67.86 -14.95,134.83 8.92,147.56 24.67,12.87 59.7,-44.96 125.55,-117.28 z"/>
        </clipPath>
        <linearGradient
                id="linearGradient60"
                spreadMethod="pad"
                gradientTransform="matrix(0,409.137,409.137,0,3102.74,1437.52)"
                gradientUnits="userSpaceOnUse"
                y2="0"
                x2="1"
                y1="0"
                x1="0">
            <stop
                    id="stop56"
                    offset="0"
                    style="stop-opacity:1;stop-color:#2555ad"/>
            <stop
                    id="stop58"
                    offset="1"
                    style="stop-opacity:1;stop-color:#3468bb"/>
        </linearGradient>
        <clipPath
                id="clipPath70"
                clipPathUnits="userSpaceOnUse">
            <path
                    inkscape:connector-curvature="0"
                    id="path68"
                    d="m 4145.99,1631.8 c 139.34,-68.02 69.88,-249.44 -161.59,-331.62 -234.31,-79.33 -479.22,23.48 -536.55,142.97 -58.25,120.9 13.83,210.15 163.52,242.98 149.42,28.92 393,17.33 534.62,-54.33 z"/>
        </clipPath>
        <linearGradient
                id="linearGradient76"
                spreadMethod="pad"
                gradientTransform="matrix(0,670.354,670.354,0,3822.63,1228.3)"
                gradientUnits="userSpaceOnUse"
                y2="0"
                x2="1"
                y1="0"
                x1="0">
            <stop
                    id="stop72"
                    offset="0"
                    style="stop-opacity:1;stop-color:#77cb46"/>
            <stop
                    id="stop74"
                    offset="1"
                    style="stop-opacity:1;stop-color:#45bb3a"/>
        </linearGradient>
        <clipPath
                id="clipPath86"
                clipPathUnits="userSpaceOnUse">
            <path
                    inkscape:connector-curvature="0"
                    id="path84"
                    d="m 2975.34,2211.75 c -23.2,68.04 -56.98,110 -90.49,94.15 -33.11,-16.07 -66.53,-75.82 -75.56,-133.1 -0.02,-0.13 -0.02,-0.25 -0.04,-0.38 -9.16,-106.25 -79.8,-163.71 -231.94,-142.41 0,0 0.01,-0.02 0.02,-0.03 -78.24,7.68 -198.91,-1.01 -273.66,-20.28 -74.06,-17.44 -38.1,-88.11 89.17,-144.66 128.42,-55.48 258.45,-23.06 282.27,42.51 0.05,0.13 0.07,0.25 0.12,0.38 0.01,-0.02 0.02,-0.03 0.03,-0.04 55.2,109.57 124.45,151.51 234.16,165.59 0,0 -0.01,0.01 -0.01,0.01 66.31,5.65 90.47,70.75 65.93,138.26 z"/>
        </clipPath>
        <linearGradient
                id="linearGradient92"
                spreadMethod="pad"
                gradientTransform="matrix(0,601.928,601.928,0,2625.13,1130.62)"
                gradientUnits="userSpaceOnUse"
                y2="0"
                x2="1"
                y1="0"
                x1="0">
            <stop
                    id="stop88"
                    offset="0"
                    style="stop-opacity:1;stop-color:#2555ad"/>
            <stop
                    id="stop90"
                    offset="1"
                    style="stop-opacity:1;stop-color:#3468bb"/>
        </linearGradient>
        <clipPath
                id="clipPath104"
                clipPathUnits="userSpaceOnUse">
            <path
                    inkscape:connector-curvature="0"
                    id="path102"
                    d="m 2508.83,1581.16 c -38.87,-91.27 -250.22,-99.06 -432.47,46.52 -178.91,146.98 -218.67,299.96 -130.81,303.04 90.21,6.28 264.51,-48.54 395.23,-105.95 128.85,-59.82 208.64,-152.5 168.05,-243.61 z"/>
        </clipPath>
        <linearGradient
                id="linearGradient110"
                spreadMethod="pad"
                gradientTransform="matrix(0,650.987,650.987,0,2210.05,1472.34)"
                gradientUnits="userSpaceOnUse"
                y2="0"
                x2="1"
                y1="0"
                x1="0">
            <stop
                    id="stop106"
                    offset="0"
                    style="stop-opacity:1;stop-color:#2555ad"/>
            <stop
                    id="stop108"
                    offset="1"
                    style="stop-opacity:1;stop-color:#3468bb"/>
        </linearGradient>
    </defs>
    <sodipodi:namedview
            id="base"
            pagecolor="#ffffff"
            bordercolor="#666666"
            borderopacity="1.0"
            inkscape:pageopacity="0.0"
            inkscape:pageshadow="2"
            inkscape:zoom="0.66"
            inkscape:cx="-605.19207"
            inkscape:cy="-140.49673"
            inkscape:document-units="mm"
            inkscape:current-layer="layer1"
            showgrid="false"
            inkscape:window-width="3026"
            inkscape:window-height="1930"
            inkscape:window-x="128"
            inkscape:window-y="0"
            inkscape:window-maximized="0"/>
    <metadata
            id="metadata5">
        <rdf:RDF>
            <cc:Work
                    rdf:about="">
                <dc:format>image/svg+xml</dc:format>
                <dc:type
                        rdf:resource="http://purl.org/dc/dcmitype/StillImage"/>
                <dc:title></dc:title>
            </cc:Work>
        </rdf:RDF>
    </metadata>
    <g
            inkscape:label="Ebene 1"
            inkscape:groupmode="layer"
            id="layer1"
            transform="translate(-30.477903,-28.058189)">
        <g
                transform="matrix(0.35277777,0,0,-0.35277777,30.477895,111.66024)"
                inkscape:label="ink_ext_XXXXXX"
                id="g18">
            <g
                    transform="scale(0.1)"
                    id="g20">
                <path
                        inkscape:connector-curvature="0"
                        id="path22"
                        style="fill:#231f20;fill-opacity:1;fill-rule:nonzero;stroke:none"
                        d="m 507.352,1120.02 c -0.489,-52.7 -19.817,-97.76 -57.969,-135.231 -38.164,-37.48 -83.582,-55.961 -136.262,-55.48 -53.191,0.48 -98.141,19.929 -134.832,58.351 -36.687,38.4 -54.773,84.73 -54.285,138.98 0.476,52.16 19.141,96.33 55.984,132.51 36.836,36.15 81.875,54.02 135.071,53.53 53.711,-0.49 99.304,-19.57 136.785,-57.19 37.48,-37.63 55.984,-82.8 55.508,-135.47 z M 564.188,489.648 C 563.809,447.93 541.465,414.48 497.164,389.309 452.852,364.168 393.406,351.922 318.816,352.59 154.527,354.102 72.7695,399.191 73.582,487.852 c 0.8125,88.668 88.32,132.207 262.527,130.609 152.825,-1.383 228.852,-44.32 228.079,-128.813 z M 131.133,1306.92 C 78.0039,1259.68 51.1094,1198.23 50.418,1122.61 49.9297,1069.41 65.7891,1020.89 97.9961,977.051 130.191,933.191 177.77,901.602 240.723,882.238 l -0.032,-3.129 C 144.461,852.328 96.1094,813.648 95.6523,763.07 95.1914,712.988 133.746,678.469 211.309,659.512 l -0.032,-3.133 C 71.2773,635.238 0.855469,577.711 0.0078125,483.828 -0.519531,425.93 26.4336,379.129 80.8867,343.418 135.328,307.711 212.879,289.422 313.543,288.5 c 101.184,-0.922 180.383,17 237.559,53.77 57.187,36.781 86.093,87.769 86.691,152.96 0.496,55.282 -16.828,99.801 -51.992,133.489 -35.176,33.699 -103.703,53.883 -205.617,60.551 -101.922,6.66 -162.586,16.351 -182.039,29.05 -19.446,12.692 -29.082,29.469 -28.887,50.34 0.152,17.719 7.859,33.289 23.125,46.731 15.23,13.418 52.676,27.55 112.262,42.398 59.613,14.832 107.335,30.051 143.214,45.641 35.871,15.582 66.883,40.738 93.008,75.449 26.145,34.691 39.485,82.031 40.028,142.031 0.609,66.75 -31.942,130.69 -97.618,191.8 l 163.508,-1.48 0.574,62.59 -288.687,2.62 c -98.574,0.9 -174.438,-22.27 -227.539,-69.52"/>
                <path
                        inkscape:connector-curvature="0"
                        id="path24"
                        style="fill:#231f20;fill-opacity:1;fill-rule:nonzero;stroke:none"
                        d="m 889.246,1686.55 c -48.691,-47.81 -73.406,-113.19 -74.16,-196.11 l -1.074,-118.15 -132.996,1.21 -0.578,-62.59 133,-1.21 -5.989,-657.18 76.668,-0.7 5.988,657.19 139.255,-1.27 0.58,62.59 -139.256,1.27 0.808,89.2 c 1.348,148.64 60.188,222.43 176.498,221.38 34.94,-0.33 78.15,-9.85 129.62,-28.57 l 0.66,71.98 c -49.38,20.79 -93.1,31.36 -131.16,31.7 -69.895,0.64 -129.192,-22.95 -177.864,-70.74"/>
                <path
                        inkscape:connector-curvature="0"
                        id="path26"
                        style="fill:#516366;fill-opacity:1;fill-rule:nonzero;stroke:none"
                        d="m 1786.24,794.219 c -61.31,-59.168 -138.4,-88.321 -231.23,-87.481 -58.41,0.532 -117.26,12.282 -176.52,35.25 l 3.98,435.782 c 82.22,92.09 166.08,137.75 251.63,136.98 71.45,-0.65 130.4,-28.57 176.84,-83.77 46.45,-55.19 69.28,-125.31 68.51,-210.31 -0.84,-91.811 -31.92,-167.279 -93.21,-226.451 z m -142.16,584.601 c -96.51,0.88 -183.44,-37.46 -260.83,-114.99 l 4.35,476.46 -76.67,0.7 -9.6,-1053.06 c 89.91,-36.821 174.76,-55.59 254.56,-56.309 121.53,-1.121 219.25,34.109 293.2,105.688 73.93,71.562 111.46,167.339 112.56,287.311 0.94,103.27 -28.29,187.91 -87.68,253.91 -59.39,65.99 -136,99.42 -229.89,100.29"/>
                <path
                        inkscape:connector-curvature="0"
                        id="path28"
                        style="fill:#516366;fill-opacity:1;fill-rule:nonzero;stroke:none"
                        d="m 2130.28,640.469 77.45,-0.707 6.56,719.778 -77.45,0.7 -6.56,-719.771"/>
                <path
                        inkscape:connector-curvature="0"
                        id="path30"
                        style="fill:#516366;fill-opacity:1;fill-rule:nonzero;stroke:none"
                        d="m 3019.72,1113.61 c 14.6,-37.07 21.78,-77.81 21.37,-122.301 -0.78,-85.547 -28.55,-156.36 -83.3,-212.469 -54.77,-56.09 -122.57,-83.762 -203.42,-83.031 -81.35,0.742 -149.05,29.66 -203.02,86.742 -54,57.09 -80.6,128.398 -79.82,213.949 0.78,86.06 28.68,157.26 83.71,213.61 24.17,24.76 50.89,44 80.15,57.74 -22.8,17.45 -43.63,35.6 -62.14,54.19 -26.94,-15.54 -52.11,-34.89 -75.42,-58.21 -70.8,-70.81 -106.69,-159.67 -107.67,-266.592 -0.96,-106.398 33.3,-195.519 102.81,-267.359 69.49,-71.84 156.4,-108.219 260.72,-109.18 104.32,-0.949 191.62,33.86 261.89,104.422 70.29,70.559 105.91,159.039 106.88,265.438 0.38,41.831 -4.67,80.961 -15,117.461 -28.06,-0.01 -57.36,1.83 -87.74,5.59"/>
                <g
                        id="g32">
                    <g
                            clip-path="url(#clipPath38)"
                            id="g34">
                        <path
                                inkscape:connector-curvature="0"
                                id="path46"
                                style="fill:url(#linearGradient44);fill-opacity:1;fill-rule:nonzero;stroke:none"
                                d="m 2767.99,2165.38 c -10.11,-56.83 -80.55,-104.25 -157.22,-97.6 -76.97,7.37 -95.33,41.9 -49.04,78.85 45.71,37.9 106,84.47 148.3,97.16 42.37,12.46 69.08,-22 57.96,-78.41"/>
                    </g>
                </g>
                <g
                        id="g48">
                    <g
                            clip-path="url(#clipPath54)"
                            id="g50">
                        <path
                                inkscape:connector-curvature="0"
                                id="path62"
                                style="fill:url(#linearGradient60);fill-opacity:1;fill-rule:nonzero;stroke:none"
                                d="m 3143.09,2250.74 c 67.89,-71.09 97.73,-131.51 32.59,-141.51 -63.3,-8.88 -143,42.97 -167.06,111.23 -26.24,67.86 -14.95,134.83 8.92,147.56 24.67,12.87 59.7,-44.96 125.55,-117.28"/>
                    </g>
                </g>
                <g
                        id="g64">
                    <g
                            clip-path="url(#clipPath70)"
                            id="g66">
                        <path
                                inkscape:connector-curvature="0"
                                id="path78"
                                style="fill:url(#linearGradient76);fill-opacity:1;fill-rule:nonzero;stroke:none"
                                d="m 4145.99,1631.8 c 139.34,-68.02 69.88,-249.44 -161.59,-331.62 -234.31,-79.33 -479.22,23.48 -536.55,142.97 -58.25,120.9 13.83,210.15 163.52,242.98 149.42,28.92 393,17.33 534.62,-54.33"/>
                    </g>
                </g>
                <g
                        id="g80">
                    <g
                            clip-path="url(#clipPath86)"
                            id="g82">
                        <path
                                inkscape:connector-curvature="0"
                                id="path94"
                                style="fill:url(#linearGradient92);fill-opacity:1;fill-rule:nonzero;stroke:none"
                                d="m 2975.34,2211.75 c -23.2,68.04 -56.98,110 -90.49,94.15 -33.11,-16.07 -66.53,-75.82 -75.56,-133.1 -0.02,-0.13 -0.02,-0.25 -0.04,-0.38 -9.16,-106.25 -79.8,-163.71 -231.94,-142.41 0,0 0.01,-0.02 0.02,-0.03 -78.24,7.68 -198.91,-1.01 -273.66,-20.28 -74.06,-17.44 -38.1,-88.11 89.17,-144.66 128.42,-55.48 258.45,-23.06 282.27,42.51 0.05,0.13 0.07,0.25 0.12,0.38 0.01,-0.02 0.02,-0.03 0.03,-0.04 55.2,109.57 124.45,151.51 234.16,165.59 0,0 -0.01,0.01 -0.01,0.01 66.31,5.65 90.47,70.75 65.93,138.26"/>
                    </g>
                </g>
                <path
                        inkscape:connector-curvature="0"
                        id="path96"
                        style="fill:#2abaef;fill-opacity:1;fill-rule:nonzero;stroke:none"
                        d="m 3091.58,1768.82 c 0.12,0.13 0.23,0.27 0.35,0.39 0.05,-0.13 0.09,-0.26 0.14,-0.39 -0.17,0 -0.33,0 -0.49,0 z m 472.33,178.48 c -126.69,64.65 -267.15,110.4 -332.91,101.36 -34.48,-5.39 -57.27,-25.76 -65.09,-55.64 -17.79,-54.23 -76.24,-57.73 -142.5,-12.92 -34.73,24.53 -73.02,37.65 -107.84,35.73 -68.19,-5.23 -139.02,-53.53 -161.17,-120.5 -12.96,-37.15 7.25,-81.83 51.28,-116.14 56.27,-58.54 61.8,-110.31 -36.31,-148.44 -57.48,-18.77 -102.21,-51.67 -121.58,-100.48 -38.11,-91.4 98.37,-258.74 329.12,-302.57 230.95,-41.9 376.81,86.49 321.06,206.21 -28.36,63.02 -83.67,113.79 -149.23,150.33 -119.76,73.44 -112.72,124.69 -54.6,184.57 -0.69,-0.01 -1.37,0.01 -2.06,0.01 59.18,60.81 103.21,64.37 227.92,14 -0.09,0.14 -0.18,0.26 -0.28,0.39 62.57,-25.15 138.05,-36.23 211.54,-21.83 146.71,30.69 159.2,123.5 32.65,185.92"/>
                <g
                        id="g98">
                    <g
                            clip-path="url(#clipPath104)"
                            id="g100">
                        <path
                                inkscape:connector-curvature="0"
                                id="path112"
                                style="fill:url(#linearGradient110);fill-opacity:1;fill-rule:nonzero;stroke:none"
                                d="m 2508.83,1581.16 c -38.87,-91.27 -250.22,-99.06 -432.47,46.52 -178.91,146.98 -218.67,299.96 -130.81,303.04 90.21,6.28 264.51,-48.54 395.23,-105.95 128.85,-59.82 208.64,-152.5 168.05,-243.61"/>
                    </g>
                </g>
                <path
                        inkscape:connector-curvature="0"
                        id="path114"
                        style="fill:#231f20;fill-opacity:1;fill-rule:nonzero;stroke:none"
                        d="m 953.469,450.801 -0.125,-14.012 C 934.574,447.75 915.793,453.328 897,453.5 c -20.16,0.18 -36.996,-6.398 -50.508,-19.75 -13.515,-13.352 -20.355,-30.18 -20.543,-50.449 -0.183,-20.301 6.281,-37.211 19.395,-50.77 13.105,-13.562 31.043,-20.441 53.789,-20.652 16.437,-0.141 31.035,3.012 43.801,9.473 l 0.394,43.296 -33.668,0.313 0.094,10.34 46.109,-0.422 -0.558,-61.449 c -18.875,-8.852 -37.782,-13.2 -56.727,-13.032 -24.726,0.223 -45.301,8.313 -61.695,24.231 -16.406,15.91 -24.496,35.66 -24.281,59.23 0.211,23.43 8.507,42.871 24.898,58.301 16.375,15.418 36.859,23.02 61.434,22.801 16.738,-0.16 34.918,-4.883 54.535,-14.16"/>
                <path
                        inkscape:connector-curvature="0"
                        id="path116"
                        style="fill:#231f20;fill-opacity:1;fill-rule:nonzero;stroke:none"
                        d="m 1075.46,461.289 -0.1,-10.34 -74.64,0.692 -0.58,-64.192 72.69,-0.668 -0.09,-10.453 -72.7,0.66 -0.591,-65.109 76.471,-0.688 -0.1,-10.332 -88.793,0.813 1.465,160.406 86.968,-0.789"/>
                <path
                        inkscape:connector-curvature="0"
                        id="path118"
                        style="fill:#231f20;fill-opacity:1;fill-rule:nonzero;stroke:none"
                        d="m 1115.07,450.59 -0.57,-62.809 26.47,-0.242 c 13.47,-0.129 23.78,2.52 30.95,7.93 7.16,5.41 10.79,13.121 10.88,23.152 0.09,9.879 -3.45,17.609 -10.63,23.18 -7.18,5.578 -17.54,8.429 -31.08,8.558 z m -12.23,10.441 40.86,-0.371 c 17.11,-0.16 30.16,-4 39.15,-11.551 8.99,-7.539 13.42,-17.668 13.3,-30.379 -0.16,-18.531 -10.41,-31.449 -30.71,-38.761 5.23,-2.578 12.23,-10.789 21.01,-24.66 l 35.55,-55.778 -14.59,0.129 -27.37,44.211 c -9.14,14.797 -16.28,24.039 -21.42,27.707 -5.14,3.692 -12.69,5.582 -22.66,5.672 l -21.55,0.199 -0.71,-76.937 -12.33,0.109 1.47,160.41"/>
                <path
                        inkscape:connector-curvature="0"
                        id="path120"
                        style="fill:#231f20;fill-opacity:1;fill-rule:nonzero;stroke:none"
                        d="m 1308.95,384.66 61.24,73.942 12.47,-0.122 -1.47,-160.41 -12.44,0.121 1.3,142.27 -61.33,-74.441 -60.2,75.55 -1.3,-142.281 -12.33,0.121 1.47,160.41 12.33,-0.121 60.26,-75.039"/>
                <path
                        inkscape:connector-curvature="0"
                        id="path122"
                        style="fill:#231f20;fill-opacity:1;fill-rule:nonzero;stroke:none"
                        d="m 1512.17,362.68 -33.65,75.871 -34.92,-75.242 z m -29.97,96.05 72.22,-162.242 -12.93,0.133 -24.71,55.68 -77.95,0.711 -25.64,-55.231 -12.94,0.117 75.18,160.891 6.77,-0.059"/>
                <path
                        inkscape:connector-curvature="0"
                        id="path124"
                        style="fill:#231f20;fill-opacity:1;fill-rule:nonzero;stroke:none"
                        d="m 1718.63,455.43 -1.46,-160.41 -10.15,0.082 -119.93,141.308 -1.28,-140.199 -12.33,0.117 1.47,160.41 10.44,-0.097 119.64,-141.313 1.28,140.203 12.32,-0.101"/>
                <path
                        inkscape:connector-curvature="0"
                        id="path126"
                        style="fill:#231f20;fill-opacity:1;fill-rule:nonzero;stroke:none"
                        d="m 1902.13,453.75 -0.1,-10.332 -69.73,0.641 -0.55,-60.981 62.88,-0.566 -0.1,-10.344 -62.88,0.582 -0.71,-78.77 -12.33,0.11 1.47,160.41 82.05,-0.75"/>
                <path
                        inkscape:connector-curvature="0"
                        id="path128"
                        style="fill:#231f20;fill-opacity:1;fill-rule:nonzero;stroke:none"
                        d="m 2009.84,452.77 -0.1,-10.329 -74.62,0.68 -0.58,-64.18 72.69,-0.66 -0.1,-10.461 -72.68,0.66 -0.6,-65.101 76.45,-0.707 -0.1,-10.332 -88.77,0.808 1.47,160.411 86.94,-0.789"/>
                <path
                        inkscape:connector-curvature="0"
                        id="path130"
                        style="fill:#231f20;fill-opacity:1;fill-rule:nonzero;stroke:none"
                        d="m 2049.46,442.078 -1.27,-139.75 44.92,-0.406 c 20.6,-0.184 37.82,6.039 51.65,18.648 13.84,12.621 20.85,29.469 21.05,50.52 0.18,20.59 -6.43,37.449 -19.85,50.59 -13.4,13.129 -30.86,19.8 -52.38,20 z m -12.23,10.442 55.77,-0.508 c 28.2,-0.262 49.66,-7.91 64.39,-22.973 14.73,-15.07 21.98,-34.418 21.77,-58.078 -0.22,-23.199 -7.75,-42.293 -22.6,-57.27 -14.84,-14.98 -35.8,-22.363 -62.86,-22.113 l -57.93,0.531 1.46,160.411"/>
                <path
                        inkscape:connector-curvature="0"
                        id="path132"
                        style="fill:#231f20;fill-opacity:1;fill-rule:nonzero;stroke:none"
                        d="m 2297.42,450.148 -0.1,-10.328 -74.63,0.68 -0.58,-64.18 72.69,-0.66 -0.09,-10.469 -72.69,0.668 -0.6,-65.109 76.46,-0.691 -0.1,-10.34 -88.78,0.812 1.47,160.41 86.95,-0.793"/>
                <path
                        inkscape:connector-curvature="0"
                        id="path134"
                        style="fill:#231f20;fill-opacity:1;fill-rule:nonzero;stroke:none"
                        d="m 2337.04,439.461 -0.57,-62.813 26.48,-0.25 c 13.46,-0.117 23.78,2.524 30.94,7.93 7.16,5.41 10.8,13.133 10.88,23.16 0.09,9.883 -3.45,17.602 -10.63,23.184 -7.17,5.578 -17.54,8.43 -31.08,8.558 z m -12.23,10.437 40.86,-0.367 c 17.12,-0.16 30.17,-4.011 39.15,-11.551 8.99,-7.539 13.42,-17.671 13.3,-30.39 -0.16,-18.52 -10.4,-31.442 -30.7,-38.762 5.22,-2.566 12.23,-10.789 21.01,-24.648 l 35.53,-55.782 -14.58,0.122 -27.36,44.218 c -9.15,14.801 -16.29,24.032 -21.43,27.711 -5.14,3.692 -12.69,5.571 -22.65,5.672 l -21.57,0.199 -0.7,-76.941 -12.32,0.109 1.46,160.41"/>
                <path
                        inkscape:connector-curvature="0"
                        id="path136"
                        style="fill:#231f20;fill-opacity:1;fill-rule:nonzero;stroke:none"
                        d="m 2551.67,353.219 -33.66,75.859 -34.93,-75.238 z m -29.98,96.031 72.22,-162.219 -12.93,0.117 -24.7,55.68 -77.97,0.711 -25.64,-55.23 -12.93,0.121 75.17,160.879 6.78,-0.059"/>
                <path
                        inkscape:connector-curvature="0"
                        id="path138"
                        style="fill:#231f20;fill-opacity:1;fill-rule:nonzero;stroke:none"
                        d="m 2705.73,446.43 -0.1,-10.328 -59.78,0.546 -1.37,-150.078 -12.44,0.11 1.37,150.082 -59.81,0.539 0.1,10.328 132.03,-1.199"/>
                <path
                        inkscape:connector-curvature="0"
                        id="path140"
                        style="fill:#231f20;fill-opacity:1;fill-rule:nonzero;stroke:none"
                        d="m 2737.34,446.141 -1.46,-160.411 -12.33,0.122 1.47,160.41 12.32,-0.121"/>
                <path
                        inkscape:connector-curvature="0"
                        id="path142"
                        style="fill:#231f20;fill-opacity:1;fill-rule:nonzero;stroke:none"
                        d="m 2850.5,294.102 c 19.83,-0.18 36.64,6.5 50.41,20.046 13.76,13.532 20.73,30.223 20.91,50.051 0.19,19.903 -6.49,36.742 -20,50.531 -13.51,13.79 -30.2,20.77 -50.04,20.961 -19.92,0.188 -36.83,-6.5 -50.76,-20.043 -13.92,-13.539 -20.96,-30.257 -21.15,-50.16 -0.18,-19.828 6.56,-36.648 20.23,-50.418 13.68,-13.789 30.47,-20.789 50.4,-20.968 z m 0.93,153.058 c 23.57,-0.211 43.47,-8.359 59.71,-24.48 16.23,-16.102 24.24,-35.641 24.03,-58.602 -0.2,-22.898 -8.58,-42.25 -25.08,-58.058 -16.54,-15.809 -36.6,-23.61 -60.16,-23.399 -23.5,0.219 -43.32,8.379 -59.48,24.5 -16.18,16.098 -24.14,35.59 -23.94,58.488 0.21,22.961 8.55,42.36 24.99,58.172 16.46,15.809 36.44,23.598 59.93,23.379"/>
                <path
                        inkscape:connector-curvature="0"
                        id="path144"
                        style="fill:#231f20;fill-opacity:1;fill-rule:nonzero;stroke:none"
                        d="m 3109.72,442.75 -1.46,-160.41 -10.15,0.09 -119.93,141.308 -1.28,-140.207 -12.32,0.117 1.46,160.411 10.44,-0.098 119.64,-141.313 1.28,140.211 12.32,-0.109"/>
                <path
                        inkscape:connector-curvature="0"
                        id="path146"
                        style="fill:#231f20;fill-opacity:1;fill-rule:nonzero;stroke:none"
                        d="m 786.449,181.711 -0.094,-10.352 -69.722,0.641 -0.555,-60.969 62.875,-0.57 -0.094,-10.352 -62.875,0.582 -0.718,-78.7613 -12.325,0.1094 1.461,160.4099 82.047,-0.738"/>
                <path
                        inkscape:connector-curvature="0"
                        id="path148"
                        style="fill:#231f20;fill-opacity:1;fill-rule:nonzero;stroke:none"
                        d="m 883.609,29.8008 c 19.84,-0.1797 36.649,6.5078 50.422,20.039 13.77,13.5391 20.742,30.2305 20.922,50.0508 0.188,19.8984 -6.484,36.7504 -20.008,50.5394 -13.519,13.8 -30.203,20.769 -50.039,20.949 -19.918,0.191 -36.832,-6.488 -50.758,-20.039 -13.921,-13.531 -20.972,-30.262 -21.156,-50.16 -0.179,-19.8284 6.567,-36.6292 20.242,-50.4183 13.672,-13.7929 30.461,-20.7734 50.375,-20.9609 z m 0.946,153.0702 c 23.57,-0.223 43.468,-8.371 59.707,-24.48 16.246,-16.121 24.254,-35.653 24.043,-58.6215 C 968.098,76.8789 959.73,57.5313 943.199,41.7188 926.672,25.9102 906.625,18.1094 883.055,18.3281 c -23.496,0.211 -43.321,8.3828 -59.485,24.4805 -16.164,16.1016 -24.132,35.6016 -23.929,58.5004 0.211,22.961 8.543,42.351 24.992,58.171 16.453,15.809 36.426,23.598 59.922,23.391"/>
                <path
                        inkscape:connector-curvature="0"
                        id="path150"
                        style="fill:#231f20;fill-opacity:1;fill-rule:nonzero;stroke:none"
                        d="m 1011.62,169.309 -0.57,-62.809 26.48,-0.238 c 13.46,-0.133 23.78,2.527 30.94,7.929 7.16,5.418 10.79,13.118 10.88,23.149 0.09,9.871 -3.45,17.609 -10.63,23.18 -7.17,5.582 -17.54,8.429 -31.08,8.55 z m -12.233,10.453 40.863,-0.371 c 17.11,-0.153 30.16,-4.012 39.15,-11.563 8.98,-7.539 13.42,-17.668 13.3,-30.367 -0.17,-18.531 -10.4,-31.461 -30.71,-38.7696 5.23,-2.582 12.23,-10.793 21.01,-24.6601 l 35.55,-55.7696 -14.59,0.1289 -27.37,44.1992 c -9.14,14.8008 -16.28,24.0391 -21.42,27.711 -5.14,3.6875 -12.69,5.5781 -22.66,5.668 l -21.56,0.1992 -0.69,-76.9297 -12.33,0.1133 1.457,160.4104"/>
                <path
                        inkscape:connector-curvature="0"
                        id="path152"
                        style="fill:#231f20;fill-opacity:1;fill-rule:nonzero;stroke:none"
                        d="m 1210.75,167.5 -0.58,-63.961 17.12,-0.148 c 28.99,-0.27 43.58,10.23 43.77,31.519 0.2,21.36 -14.35,32.168 -43.64,32.43 z m -0.67,-74.4102 -0.6,-65.3398 32.98,-0.3008 c 13.62,-0.1289 24,2.7305 31.13,8.5625 7.13,5.8281 10.73,13.6797 10.83,23.5586 0.2,21.8906 -15.38,32.9883 -46.73,33.2695 z m -11.55,84.8592 33.2,-0.308 c 17.42,-0.153 30.59,-3.95 39.51,-11.371 8.9,-7.442 13.3,-17.629 13.18,-30.559 -0.14,-15.473 -7.89,-27.301 -23.26,-35.512 24.52,-5.5779 36.69,-19.2381 36.49,-40.9802 -0.12,-13.0079 -5.03,-23.3204 -14.72,-30.9297 -9.7,-7.6094 -22.76,-11.3203 -39.19,-11.168 l -46.67,0.418 1.46,160.4099"/>
                <path
                        inkscape:connector-curvature="0"
                        id="path154"
                        style="fill:#231f20;fill-opacity:1;fill-rule:nonzero;stroke:none"
                        d="m 1334.44,176.719 -1.46,-160.4104 -12.32,0.1016 1.46,160.4098 12.32,-0.101"/>
                <path
                        inkscape:connector-curvature="0"
                        id="path156"
                        style="fill:#231f20;fill-opacity:1;fill-rule:nonzero;stroke:none"
                        d="m 1447.59,24.6602 c 19.82,-0.1797 36.65,6.5078 50.4,20.039 13.77,13.5391 20.74,30.2305 20.92,50.0508 0.18,19.91 -6.48,36.75 -20.01,50.539 -13.5,13.801 -30.19,20.77 -50.02,20.961 -19.92,0.172 -36.84,-6.5 -50.77,-20.039 -13.91,-13.539 -20.97,-30.27 -21.15,-50.1719 -0.19,-19.8203 6.57,-36.6289 20.23,-50.418 13.69,-13.793 30.48,-20.7813 50.4,-20.9609 z m 0.93,153.0698 c 23.57,-0.21 43.48,-8.371 59.71,-24.48 16.23,-16.109 24.25,-35.66 24.04,-58.6211 -0.21,-22.8906 -8.59,-42.2383 -25.1,-58.0508 -16.52,-15.7968 -36.58,-23.5976 -60.15,-23.3867 -23.5,0.2188 -43.33,8.3789 -59.49,24.4805 -16.16,16.1094 -24.13,35.6094 -23.92,58.4961 0.21,22.973 8.54,42.352 24.98,58.172 16.46,15.808 36.43,23.609 59.93,23.39"/>
                <path
                        inkscape:connector-curvature="0"
                        id="path158"
                        style="fill:#231f20;fill-opacity:1;fill-rule:nonzero;stroke:none"
                        d="m 1575.69,174.52 -1.37,-150.0903 78.86,-0.7188 -0.1,-10.3203 -91.18,0.8282 1.46,160.4102 12.33,-0.109"/>
                <path
                        inkscape:connector-curvature="0"
                        id="path160"
                        style="fill:#231f20;fill-opacity:1;fill-rule:nonzero;stroke:none"
                        d="m 1749.65,21.9102 c 19.83,-0.1719 36.65,6.5 50.42,20.039 13.76,13.5391 20.74,30.2227 20.92,50.0508 0.18,19.898 -6.49,36.75 -20.01,50.539 -13.52,13.789 -30.2,20.781 -50.04,20.949 -19.91,0.192 -36.83,-6.488 -50.75,-20.039 -13.92,-13.531 -20.97,-30.25 -21.15,-50.1482 -0.19,-19.832 6.56,-36.6406 20.23,-50.4297 13.68,-13.793 30.47,-20.7695 50.38,-20.9609 z m 0.94,153.0698 c 23.56,-0.218 43.47,-8.371 59.71,-24.48 16.24,-16.121 24.25,-35.648 24.04,-58.6211 -0.21,-22.8906 -8.58,-42.2383 -25.1,-58.0508 -16.53,-15.8086 -36.59,-23.6093 -60.15,-23.3867 -23.49,0.207 -43.32,8.3789 -59.48,24.4766 -16.17,16.1015 -24.14,35.6015 -23.93,58.4922 0.21,22.9688 8.54,42.3598 24.99,58.1798 16.46,15.808 36.43,23.601 59.92,23.39"/>
                <path
                        inkscape:connector-curvature="0"
                        id="path162"
                        style="fill:#231f20;fill-opacity:1;fill-rule:nonzero;stroke:none"
                        d="m 1998.73,159.059 -0.13,-14.008 c -18.77,10.961 -37.54,16.527 -56.33,16.699 -20.16,0.18 -37,-6.398 -50.51,-19.75 -13.52,-13.352 -20.37,-30.172 -20.56,-50.4609 -0.18,-20.2774 6.29,-37.1993 19.41,-50.75 13.11,-13.5703 31.04,-20.4375 53.79,-20.6602 16.43,-0.1406 31.03,3.0117 43.79,9.4922 l 0.4,43.2891 -33.66,0.3007 0.1,10.3399 46.09,-0.4219 -0.56,-61.4297 c -18.88,-8.8594 -37.78,-13.21092 -56.72,-13.03123 -24.73,0.22266 -45.29,8.29293 -61.69,24.22263 -16.41,15.9102 -24.51,35.6602 -24.29,59.2383 0.21,23.4221 8.51,42.8511 24.9,58.2811 16.38,15.43 36.86,23.031 61.44,22.809 16.73,-0.16 34.9,-4.867 54.53,-14.16"/>
                <path
                        inkscape:connector-curvature="0"
                        id="path164"
                        style="fill:#231f20;fill-opacity:1;fill-rule:nonzero;stroke:none"
                        d="m 2045.62,170.23 -1.46,-160.40969 -12.33,0.1211 1.46,160.41059 12.33,-0.122"/>
                <path
                        inkscape:connector-curvature="0"
                        id="path166"
                        style="fill:#231f20;fill-opacity:1;fill-rule:nonzero;stroke:none"
                        d="m 2214.75,157.309 -0.12,-13.539 c -19.22,10.5 -38.12,15.851 -56.68,16.011 -19.78,0.188 -36.39,-6.429 -49.83,-19.863 -13.43,-13.43 -20.25,-30.289 -20.43,-50.5782 -0.19,-20.5117 6.35,-37.4609 19.62,-50.8203 13.27,-13.3711 30.29,-20.1406 51.07,-20.3281 17.34,-0.1601 36.3,5.1484 56.85,15.9102 l -0.12,-12.8633 c -18.95,-9.8672 -37.83,-14.69924 -56.62,-14.51955 -24.26,0.21094 -44.42,8.22265 -60.44,24.01955 -16.03,15.8008 -23.93,35.3828 -23.71,58.7305 0.21,23.5002 8.64,43.0622 25.29,58.6792 16.66,15.622 36.4,23.321 59.22,23.122 17.96,-0.168 36.59,-4.821 55.9,-13.961"/>
                <path
                        inkscape:connector-curvature="0"
                        id="path168"
                        style="fill:#231f20;fill-opacity:1;fill-rule:nonzero;stroke:none"
                        d="m 2343.69,72.8906 -33.65,75.8714 -34.94,-75.2503 z m -29.97,96.0394 72.22,-162.21906 -12.92,0.10937 -24.71,55.69139 -77.97,0.7071 -25.64,-55.23052 -12.93,0.1211 75.17,160.87862 6.78,-0.058"/>
                <path
                        inkscape:connector-curvature="0"
                        id="path170"
                        style="fill:#231f20;fill-opacity:1;fill-rule:nonzero;stroke:none"
                        d="m 2419.02,166.828 -1.37,-150.0897 78.85,-0.7188 -0.1,-10.32028 -91.17,0.83203 1.47,160.40975 12.32,-0.113"/>
                <path
                        inkscape:connector-curvature="0"
                        id="path172"
                        style="fill:#231f20;fill-opacity:1;fill-rule:nonzero;stroke:none"
                        d="m 2593.52,154.898 -1.27,-139.7496 44.93,-0.4101 c 20.59,-0.1797 37.8,6.043 51.63,18.6601 13.83,12.6133 20.86,29.461 21.05,50.5 0.19,20.6016 -6.42,37.4606 -19.84,50.6016 -13.41,13.129 -30.86,19.801 -52.38,20 z m -12.22,10.454 55.76,-0.512 c 28.2,-0.25 49.66,-7.918 64.38,-22.981 14.73,-15.07 21.99,-34.418 21.77,-58.0777 -0.21,-23.2032 -7.74,-42.293 -22.6,-57.2696 -14.84,-14.9804 -35.79,-22.33982 -62.85,-22.10154 l -57.93,0.53125 1.47,160.41059"/>
                <path
                        inkscape:connector-curvature="0"
                        id="path174"
                        style="fill:#231f20;fill-opacity:1;fill-rule:nonzero;stroke:none"
                        d="M 2837.82,68.3906 2804.17,144.25 2769.24,69.0117 Z M 2807.85,164.43 2880.08,2.19922 2867.15,2.32031 2842.44,58 l -77.97,0.7188 -25.63,-55.23052 -12.94,0.1211 75.17,160.87862 6.78,-0.058"/>
                <path
                        inkscape:connector-curvature="0"
                        id="path176"
                        style="fill:#231f20;fill-opacity:1;fill-rule:nonzero;stroke:none"
                        d="m 2991.88,161.609 -0.1,-10.339 -59.79,0.539 -1.37,-150.07072 -12.44,0.1211 1.37,150.07062 -59.8,0.55 0.1,10.34 132.03,-1.211"/>
                <path
                        inkscape:connector-curvature="0"
                        id="path178"
                        style="fill:#231f20;fill-opacity:1;fill-rule:nonzero;stroke:none"
                        d="M 3080.89,66.1797 3047.23,142.051 3012.3,66.8008 Z M 3050.92,162.211 3123.14,0 3110.21,0.109375 3085.51,55.7891 3007.54,56.5 2981.9,1.28125 l -12.94,0.10938 75.18,160.89037 6.78,-0.07"/>
            </g>
        </g>
    </g>
</svg>
