<?xml version="1.0" encoding="UTF-8" standalone="no"?>
<!-- Generator: Adobe Illustrator 15.0.2, SVG Export Plug-In . SVG Version: 6.00 Build 0)  -->

<svg
   xmlns:dc="http://purl.org/dc/elements/1.1/"
   xmlns:cc="http://creativecommons.org/ns#"
   xmlns:rdf="http://www.w3.org/1999/02/22-rdf-syntax-ns#"
   xmlns:svg="http://www.w3.org/2000/svg"
   xmlns="http://www.w3.org/2000/svg"
   xmlns:sodipodi="http://sodipodi.sourceforge.net/DTD/sodipodi-0.dtd"
   xmlns:inkscape="http://www.inkscape.org/namespaces/inkscape"
   version="1.1"
   x="0px"
   y="0px"
   width="106.298"
   height="52.458"
   viewBox="0 0 265.85803 133.2909"
   enable-background="new 0 0 435.185 218.518"
   xml:space="preserve"
   id="svg247"
   sodipodi:docname="gfbio_logo.smaller.svg"
   inkscape:version="0.92.3 (2405546, 2018-03-11)"><metadata
   id="metadata253"><rdf:RDF><cc:Work
       rdf:about=""><dc:format>image/svg+xml</dc:format><dc:type
         rdf:resource="http://purl.org/dc/dcmitype/StillImage" /><dc:title /></cc:Work></rdf:RDF></metadata><defs
   id="defs251" /><sodipodi:namedview
   pagecolor="#ffffff"
   bordercolor="#666666"
   borderopacity="1"
   objecttolerance="10"
   gridtolerance="10"
   guidetolerance="10"
   inkscape:pageopacity="0"
   inkscape:pageshadow="2"
   inkscape:window-width="3840"
   inkscape:window-height="2107"
   id="namedview249"
   showgrid="false"
   inkscape:zoom="2"
   inkscape:cx="132.51403"
   inkscape:cy="92.515249"
   inkscape:window-x="0"
   inkscape:window-y="0"
   inkscape:window-maximized="1"
   inkscape:current-layer="svg247" />
<g
   id="g240"
   transform="matrix(0.64039898,0,0,0.64040781,-8.1658043,-3.3692079)">
	<path
   d="m 25.337,116.329 c -3.685,3.618 -5.551,8.035 -5.599,13.251 -0.049,5.425 1.76,10.058 5.429,13.897 3.669,3.843 8.164,5.787 13.483,5.835 5.268,0.049 9.81,-1.8 13.626,-5.548 3.815,-3.747 5.748,-8.253 5.797,-13.522 0.048,-5.268 -1.803,-9.784 -5.551,-13.548 -3.748,-3.762 -8.308,-5.67 -13.679,-5.719 -5.318,-0.049 -9.822,1.738 -13.506,5.354 z"
   id="path185"
   inkscape:connector-curvature="0"
   style="fill:none" />
	<path
   d="m 14.697,193.458 c -0.081,8.866 8.095,13.375 24.523,13.525 7.459,0.067 13.403,-1.157 17.835,-3.672 4.43,-2.517 6.664,-5.861 6.702,-10.033 0.077,-8.449 -7.525,-12.743 -22.808,-12.882 -17.42,-0.158 -26.171,4.195 -26.252,13.062 z"
   id="path187"
   inkscape:connector-curvature="0"
   style="fill:none" />
	<path
   d="m 254.492,142.593 c -0.078,8.555 2.582,15.687 7.981,21.396 5.397,5.708 12.167,8.6 20.303,8.674 8.085,0.073 14.864,-2.694 20.342,-8.304 5.475,-5.61 8.252,-12.691 8.33,-21.246 0.04,-4.449 -0.677,-8.523 -2.137,-12.23 -1.453,-0.18 -2.922,-0.388 -4.423,-0.66 -13.814,-2.624 -25.392,-8.167 -34.011,-14.763 -2.926,1.374 -5.598,3.297 -8.015,5.773 -5.502,5.635 -8.292,12.755 -8.37,21.36 z"
   id="path189"
   inkscape:connector-curvature="0"
   style="fill:none" />
	<path
   d="m 170.749,110.768 c -8.555,-0.077 -16.941,4.489 -25.163,13.698 l -0.397,43.578 c 5.926,2.297 11.811,3.472 17.651,3.525 9.283,0.084 16.992,-2.831 23.123,-8.748 6.129,-5.917 9.237,-13.465 9.321,-22.646 0.077,-8.5 -2.206,-15.512 -6.851,-21.031 -4.645,-5.519 -10.539,-8.311 -17.684,-8.376 z"
   id="path191"
   inkscape:connector-curvature="0"
   style="fill:none" />
	<path
   d="m 20.452,111.551 c -5.312,4.724 -8.002,10.869 -8.071,18.431 -0.049,5.32 1.537,10.173 4.758,14.557 3.22,4.386 7.978,7.545 14.272,9.48 l -0.003,0.313 c -9.623,2.678 -14.458,6.546 -14.504,11.604 -0.046,5.008 3.81,8.46 11.565,10.356 l -0.003,0.312 c -14,2.114 -21.042,7.867 -21.127,17.255 -0.053,5.79 2.643,10.471 8.088,14.041 5.444,3.571 13.199,5.4 23.266,5.492 10.118,0.093 18.038,-1.7 23.756,-5.377 5.719,-3.678 8.609,-8.776 8.669,-15.296 0.05,-5.528 -1.683,-9.979 -5.199,-13.349 -3.518,-3.37 -10.37,-5.389 -20.562,-6.056 -10.192,-0.666 -16.259,-1.635 -18.204,-2.904 -1.944,-1.27 -2.908,-2.947 -2.889,-5.034 0.016,-1.772 0.786,-3.329 2.312,-4.673 1.523,-1.342 5.268,-2.755 11.227,-4.24 5.961,-1.483 10.733,-3.005 14.321,-4.564 3.587,-1.558 6.688,-4.073 9.301,-7.545 2.614,-3.469 3.948,-8.203 4.003,-14.202 0.061,-6.676 -3.194,-13.069 -9.762,-19.181 l 16.351,0.148 0.058,-6.259 -28.869,-0.263 c -9.858,-0.088 -17.444,2.23 -22.754,6.954 z m 43.305,81.728 c -0.038,4.172 -2.272,7.517 -6.702,10.033 -4.432,2.515 -10.376,3.739 -17.835,3.672 -16.429,-0.15 -24.604,-4.659 -24.523,-13.525 0.081,-8.867 8.832,-13.221 26.253,-13.062 15.282,0.139 22.884,4.433 22.807,12.882 z m -5.683,-63.037 c -0.049,5.27 -1.981,9.775 -5.797,13.522 -3.816,3.748 -8.358,5.597 -13.626,5.548 -5.319,-0.048 -9.814,-1.992 -13.483,-5.835 -3.669,-3.84 -5.478,-8.473 -5.429,-13.897 0.048,-5.216 1.914,-9.633 5.599,-13.251 3.684,-3.615 8.188,-5.402 13.507,-5.354 5.371,0.049 9.931,1.957 13.679,5.719 3.747,3.764 5.598,8.28 5.55,13.548 z"
   id="path193"
   inkscape:connector-curvature="0" />
	<path
   d="m 96.263,73.588 c -4.869,4.781 -7.341,11.319 -7.416,19.611 l -0.107,11.814 -13.3,-0.121 -0.058,6.259 13.3,0.121 -0.599,65.719 7.667,0.069 0.599,-65.719 13.926,0.127 0.058,-6.259 -13.926,-0.127 0.081,-8.92 c 0.135,-14.864 6.019,-22.243 17.649,-22.138 3.494,0.032 7.815,0.984 12.963,2.856 l 0.065,-7.198 c -4.938,-2.079 -9.31,-3.136 -13.116,-3.17 -6.989,-0.061 -12.919,2.297 -17.786,7.076 z"
   id="path195"
   inkscape:connector-curvature="0" />
	<path
   d="m 171.747,104.362 c -9.651,-0.088 -18.344,3.745 -26.083,11.498 l 0.435,-47.646 -7.667,-0.07 -0.96,105.307 c 8.991,3.682 17.477,5.559 25.456,5.631 12.153,0.111 21.926,-3.411 29.32,-10.569 7.394,-7.156 11.146,-16.733 11.256,-28.73 0.094,-10.327 -2.829,-18.791 -8.768,-25.392 -5.94,-6.599 -13.601,-9.943 -22.989,-10.029 z m 14.215,58.46 c -6.131,5.917 -13.84,8.832 -23.123,8.748 -5.841,-0.054 -11.726,-1.229 -17.651,-3.525 l 0.397,-43.578 c 8.222,-9.209 16.608,-13.775 25.163,-13.698 7.146,0.065 13.04,2.857 17.685,8.377 4.645,5.52 6.928,12.531 6.851,21.031 -0.084,9.18 -3.193,16.728 -9.322,22.645 z"
   id="path197"
   inkscape:connector-curvature="0"
   style="fill:#58696c" />
	
		<rect
   x="220.69501"
   y="106.253"
   transform="matrix(-1,-0.0091,0.0091,-1,447.8343,286.519)"
   width="7.7449999"
   height="71.981003"
   id="rect199"
   style="fill:#58696c" />
	<path
   d="m 309.311,130.882 c 1.46,3.707 2.177,7.781 2.137,12.23 -0.078,8.555 -2.855,15.636 -8.33,21.246 -5.478,5.609 -12.257,8.377 -20.342,8.304 -8.136,-0.074 -14.905,-2.966 -20.303,-8.674 -5.399,-5.709 -8.06,-12.841 -7.981,-21.396 0.078,-8.605 2.868,-15.726 8.371,-21.361 2.417,-2.476 5.089,-4.399 8.015,-5.773 -2.28,-1.746 -4.362,-3.561 -6.213,-5.42 -2.695,1.554 -5.212,3.489 -7.543,5.821 -7.08,7.081 -10.669,15.968 -10.767,26.659 -0.097,10.641 3.33,19.553 10.28,26.736 6.949,7.184 15.641,10.822 26.072,10.918 10.432,0.095 19.162,-3.386 26.189,-10.442 7.028,-7.056 10.591,-15.903 10.688,-26.544 0.038,-4.183 -0.467,-8.096 -1.5,-11.745 -2.805,0.001 -5.735,-0.183 -8.773,-0.559 z"
   id="path201"
   inkscape:connector-curvature="0"
   style="fill:#58696c" />
	<linearGradient
   id="SVGID_1_"
   gradientUnits="userSpaceOnUse"
   x1="272.69379"
   y1="13.7637"
   x2="272.69379"
   y2="35.724098">
		<stop
   offset="0"
   style="stop-color:#81C458"
   id="stop203" />
		<stop
   offset="1"
   style="stop-color:#43B649"
   id="stop205" />
	</linearGradient>
	<path
   d="m 284.137,25.706 c -1.011,5.683 -8.055,10.424 -15.722,9.759 -7.696,-0.737 -9.533,-4.19 -4.903,-7.885 4.57,-3.79 10.6,-8.447 14.83,-9.715 4.237,-1.247 6.908,2.199 5.795,7.841 z"
   id="path208"
   style="fill:url(#SVGID_1_)"
   inkscape:connector-curvature="0" />
	<linearGradient
   id="SVGID_2_"
   gradientUnits="userSpaceOnUse"
   x1="317.61279"
   y1="98.4907"
   x2="317.61279"
   y2="57.5769">
		<stop
   offset="0"
   style="stop-color:#005AAA"
   id="stop210" />
		<stop
   offset="1"
   style="stop-color:#146DB6"
   id="stop212" />
	</linearGradient>
	<path
   d="m 321.648,17.169 c 6.788,7.109 9.772,13.151 3.259,14.151 -6.33,0.888 -14.3,-4.297 -16.706,-11.124 -2.624,-6.785 -1.495,-13.482 0.892,-14.755 2.466,-1.286 5.97,4.496 12.555,11.728 z"
   id="path215"
   style="fill:url(#SVGID_2_)"
   inkscape:connector-curvature="0" />
	<linearGradient
   id="SVGID_3_"
   gradientUnits="userSpaceOnUse"
   x1="389.60211"
   y1="119.4131"
   x2="389.60211"
   y2="52.377899">
		<stop
   offset="0"
   style="stop-color:#81C458"
   id="stop217" />
		<stop
   offset="1"
   style="stop-color:#43B649"
   id="stop219" />
	</linearGradient>
	<path
   d="m 421.938,79.063 c 13.934,6.802 6.987,24.944 -16.159,33.163 -23.431,7.933 -47.923,-2.348 -53.654,-14.297 -5.826,-12.09 1.382,-21.015 16.352,-24.298 14.941,-2.893 39.299,-1.734 53.461,5.432 z"
   id="path222"
   style="fill:url(#SVGID_3_)"
   inkscape:connector-curvature="0" />
	<linearGradient
   id="SVGID_4_"
   gradientUnits="userSpaceOnUse"
   x1="269.85211"
   y1="129.1821"
   x2="269.85211"
   y2="68.988998">
		<stop
   offset="0"
   style="stop-color:#005AAA"
   id="stop224" />
		<stop
   offset="1"
   style="stop-color:#146DB6"
   id="stop226" />
	</linearGradient>
	<path
   d="m 304.873,21.068 c -2.32,-6.804 -5.698,-11 -9.049,-9.416 -3.311,1.608 -6.653,7.583 -7.556,13.311 -0.003,0.013 -0.003,0.025 -0.005,0.038 -0.915,10.625 -7.979,16.371 -23.193,14.241 0,0 0.001,0.001 0.002,0.002 -7.824,-0.768 -19.891,0.101 -27.366,2.029 -7.406,1.743 -3.811,8.811 8.918,14.466 12.841,5.548 25.844,2.306 28.226,-4.251 0.005,-0.013 0.008,-0.025 0.013,-0.039 10e-4,0.001 0.002,0.003 0.003,0.004 5.52,-10.957 12.444,-15.151 23.416,-16.559 -10e-4,0 -10e-4,-10e-4 -0.002,-10e-4 6.631,-0.564 9.047,-7.074 6.593,-13.825 z"
   id="path229"
   style="fill:url(#SVGID_4_)"
   inkscape:connector-curvature="0" />
	<path
   d="m 363.73,47.513 c -12.67,-6.465 -26.716,-11.04 -33.292,-10.136 -3.447,0.54 -5.727,2.576 -6.508,5.564 -1.779,5.422 -7.624,5.772 -14.251,1.292 -3.473,-2.454 -7.302,-3.766 -10.783,-3.573 -6.819,0.523 -13.902,5.353 -16.117,12.05 -1.296,3.714 0.725,8.183 5.128,11.614 5.627,5.854 6.18,11.031 -3.631,14.843 -5.748,1.877 -10.222,5.167 -12.158,10.048 -3.811,9.14 9.837,25.874 32.912,30.257 23.095,4.19 37.682,-8.649 32.105,-20.621 -2.836,-6.301 -8.367,-11.379 -14.923,-15.033 -11.976,-7.344 -11.271,-12.469 -5.46,-18.457 -0.068,0 -0.137,-0.001 -0.206,-0.001 5.919,-6.081 10.321,-6.437 22.793,-1.4 -0.01,-0.013 -0.02,-0.026 -0.028,-0.039 6.256,2.516 13.805,3.624 21.153,2.184 14.672,-3.069 15.92,-12.35 3.266,-18.592 z m -47.233,17.848 c 0.013,-0.013 0.023,-0.026 0.035,-0.039 0.005,0.014 0.009,0.026 0.014,0.04 -0.017,-10e-4 -0.033,-10e-4 -0.049,-10e-4 z"
   id="path231"
   inkscape:connector-curvature="0"
   style="fill:#00b7ed" />
	<linearGradient
   id="SVGID_5_"
   gradientUnits="userSpaceOnUse"
   x1="228.34419"
   y1="95.009804"
   x2="228.34419"
   y2="29.910601">
		<stop
   offset="0"
   style="stop-color:#005AAA"
   id="stop233" />
		<stop
   offset="1"
   style="stop-color:#146DB6"
   id="stop235" />
	</linearGradient>
	<path
   d="M 258.222,84.127 C 254.334,93.254 233.2,94.033 214.975,79.475 197.083,64.777 193.107,49.48 201.893,49.171 c 9.021,-0.627 26.451,4.854 39.523,10.595 12.885,5.983 20.865,15.25 16.806,24.361 z"
   id="path238"
   style="fill:url(#SVGID_5_)"
   inkscape:connector-curvature="0" />
</g>

</svg>