<?xml version="1.0" encoding="UTF-8" standalone="no"?>
<!-- Generator: Adobe Illustrator 15.0.2, SVG Export Plug-In . SVG Version: 6.00 Build 0)  -->

<svg
   xmlns:dc="http://purl.org/dc/elements/1.1/"
   xmlns:cc="http://creativecommons.org/ns#"
   xmlns:rdf="http://www.w3.org/1999/02/22-rdf-syntax-ns#"
   xmlns:svg="http://www.w3.org/2000/svg"
   xmlns="http://www.w3.org/2000/svg"
   xmlns:sodipodi="http://sodipodi.sourceforge.net/DTD/sodipodi-0.dtd"
   xmlns:inkscape="http://www.inkscape.org/namespaces/inkscape"
   version="1.1"
   x="0px"
   y="0px"
   width="174px"
   height="86px"
   viewBox="0 0 435.185 218.518"
   enable-background="new 0 0 435.185 218.518"
   xml:space="preserve"
   id="svg247"
   sodipodi:docname="gfbio_logo.svg"
   inkscape:version="0.92.3 (2405546, 2018-03-11)"><metadata
   id="metadata253"><rdf:RDF><cc:Work
       rdf:about=""><dc:format>image/svg+xml</dc:format><dc:type
         rdf:resource="http://purl.org/dc/dcmitype/StillImage" /><dc:title></dc:title></cc:Work></rdf:RDF></metadata><defs
   id="defs251" /><sodipodi:namedview
   pagecolor="#ffffff"
   bordercolor="#666666"
   borderopacity="1"
   objecttolerance="10"
   gridtolerance="10"
   guidetolerance="10"
   inkscape:pageopacity="0"
   inkscape:pageshadow="2"
   inkscape:window-width="3840"
   inkscape:window-height="2051"
   id="namedview249"
   showgrid="false"
   inkscape:zoom="6.1100452"
   inkscape:cx="217.5925"
   inkscape:cy="109.259"
   inkscape:window-x="0"
   inkscape:window-y="0"
   inkscape:window-maximized="1"
   inkscape:current-layer="svg247" />
<g
   id="g240">
	<path
   fill="none"
   d="M25.337,116.329c-3.685,3.618-5.551,8.035-5.599,13.251c-0.049,5.425,1.76,10.058,5.429,13.897   c3.669,3.843,8.164,5.787,13.483,5.835c5.268,0.049,9.81-1.8,13.626-5.548c3.815-3.747,5.748-8.253,5.797-13.522   c0.048-5.268-1.803-9.784-5.551-13.548c-3.748-3.762-8.308-5.67-13.679-5.719C33.525,110.926,29.021,112.713,25.337,116.329z"
   id="path185" />
	<path
   fill="none"
   d="M14.697,193.458c-0.081,8.866,8.095,13.375,24.523,13.525c7.459,0.067,13.403-1.157,17.835-3.672   c4.43-2.517,6.664-5.861,6.702-10.033c0.077-8.449-7.525-12.743-22.808-12.882C23.529,180.238,14.778,184.591,14.697,193.458z"
   id="path187" />
	<path
   fill="none"
   d="M254.492,142.593c-0.078,8.555,2.582,15.687,7.981,21.396c5.397,5.708,12.167,8.6,20.303,8.674   c8.085,0.073,14.864-2.694,20.342-8.304c5.475-5.61,8.252-12.691,8.33-21.246c0.04-4.449-0.677-8.523-2.137-12.23   c-1.453-0.18-2.922-0.388-4.423-0.66c-13.814-2.624-25.392-8.167-34.011-14.763c-2.926,1.374-5.598,3.297-8.015,5.773   C257.36,126.868,254.57,133.988,254.492,142.593z"
   id="path189" />
	<path
   fill="none"
   d="M170.749,110.768c-8.555-0.077-16.941,4.489-25.163,13.698l-0.397,43.578   c5.926,2.297,11.811,3.472,17.651,3.525c9.283,0.084,16.992-2.831,23.123-8.748c6.129-5.917,9.237-13.465,9.321-22.646   c0.077-8.5-2.206-15.512-6.851-21.031S177.894,110.833,170.749,110.768z"
   id="path191" />
	<path
   d="M20.452,111.551c-5.312,4.724-8.002,10.869-8.071,18.431c-0.049,5.32,1.537,10.173,4.758,14.557   c3.22,4.386,7.978,7.545,14.272,9.48l-0.003,0.313c-9.623,2.678-14.458,6.546-14.504,11.604c-0.046,5.008,3.81,8.46,11.565,10.356   l-0.003,0.312c-14,2.114-21.042,7.867-21.127,17.255c-0.053,5.79,2.643,10.471,8.088,14.041c5.444,3.571,13.199,5.4,23.266,5.492   c10.118,0.093,18.038-1.7,23.756-5.377c5.719-3.678,8.609-8.776,8.669-15.296c0.05-5.528-1.683-9.979-5.199-13.349   c-3.518-3.37-10.37-5.389-20.562-6.056c-10.192-0.666-16.259-1.635-18.204-2.904c-1.944-1.27-2.908-2.947-2.889-5.034   c0.016-1.772,0.786-3.329,2.312-4.673c1.523-1.342,5.268-2.755,11.227-4.24c5.961-1.483,10.733-3.005,14.321-4.564   c3.587-1.558,6.688-4.073,9.301-7.545c2.614-3.469,3.948-8.203,4.003-14.202c0.061-6.676-3.194-13.069-9.762-19.181l16.351,0.148   l0.058-6.259l-28.869-0.263C33.348,104.509,25.762,106.827,20.452,111.551z M63.757,193.279c-0.038,4.172-2.272,7.517-6.702,10.033   c-4.432,2.515-10.376,3.739-17.835,3.672c-16.429-0.15-24.604-4.659-24.523-13.525c0.081-8.867,8.832-13.221,26.253-13.062   C56.232,180.536,63.834,184.83,63.757,193.279z M58.074,130.242c-0.049,5.27-1.981,9.775-5.797,13.522   c-3.816,3.748-8.358,5.597-13.626,5.548c-5.319-0.048-9.814-1.992-13.483-5.835c-3.669-3.84-5.478-8.473-5.429-13.897   c0.048-5.216,1.914-9.633,5.599-13.251c3.684-3.615,8.188-5.402,13.507-5.354c5.371,0.049,9.931,1.957,13.679,5.719   C56.271,120.458,58.122,124.974,58.074,130.242z"
   id="path193" />
	<path
   d="M96.263,73.588c-4.869,4.781-7.341,11.319-7.416,19.611l-0.107,11.814l-13.3-0.121l-0.058,6.259l13.3,0.121l-0.599,65.719   l7.667,0.069l0.599-65.719l13.926,0.127l0.058-6.259l-13.926-0.127l0.081-8.92c0.135-14.864,6.019-22.243,17.649-22.138   c3.494,0.032,7.815,0.984,12.963,2.856l0.065-7.198c-4.938-2.079-9.31-3.136-13.116-3.17   C107.06,66.451,101.13,68.809,96.263,73.588z"
   id="path195" />
	<path
   fill="#58696C"
   d="M171.747,104.362c-9.651-0.088-18.344,3.745-26.083,11.498l0.435-47.646l-7.667-0.07l-0.96,105.307   c8.991,3.682,17.477,5.559,25.456,5.631c12.153,0.111,21.926-3.411,29.32-10.569c7.394-7.156,11.146-16.733,11.256-28.73   c0.094-10.327-2.829-18.791-8.768-25.392C188.796,107.792,181.135,104.448,171.747,104.362z M185.962,162.822   c-6.131,5.917-13.84,8.832-23.123,8.748c-5.841-0.054-11.726-1.229-17.651-3.525l0.397-43.578   c8.222-9.209,16.608-13.775,25.163-13.698c7.146,0.065,13.04,2.857,17.685,8.377s6.928,12.531,6.851,21.031   C195.2,149.357,192.091,156.905,185.962,162.822z"
   id="path197" />
	
		<rect
   x="220.695"
   y="106.253"
   transform="matrix(-1 -0.0091 0.0091 -1 447.8343 286.519)"
   fill="#58696C"
   width="7.745"
   height="71.981"
   id="rect199" />
	<path
   fill="#58696C"
   d="M309.311,130.882c1.46,3.707,2.177,7.781,2.137,12.23c-0.078,8.555-2.855,15.636-8.33,21.246   c-5.478,5.609-12.257,8.377-20.342,8.304c-8.136-0.074-14.905-2.966-20.303-8.674c-5.399-5.709-8.06-12.841-7.981-21.396   c0.078-8.605,2.868-15.726,8.371-21.361c2.417-2.476,5.089-4.399,8.015-5.773c-2.28-1.746-4.362-3.561-6.213-5.42   c-2.695,1.554-5.212,3.489-7.543,5.821c-7.08,7.081-10.669,15.968-10.767,26.659c-0.097,10.641,3.33,19.553,10.28,26.736   c6.949,7.184,15.641,10.822,26.072,10.918c10.432,0.095,19.162-3.386,26.189-10.442c7.028-7.056,10.591-15.903,10.688-26.544   c0.038-4.183-0.467-8.096-1.5-11.745C315.279,131.442,312.349,131.258,309.311,130.882z"
   id="path201" />
	<linearGradient
   id="SVGID_1_"
   gradientUnits="userSpaceOnUse"
   x1="272.6938"
   y1="13.7637"
   x2="272.6938"
   y2="35.7241">
		<stop
   offset="0"
   style="stop-color:#81C458"
   id="stop203" />
		<stop
   offset="1"
   style="stop-color:#43B649"
   id="stop205" />
	</linearGradient>
	<path
   fill="url(#SVGID_1_)"
   d="M284.137,25.706c-1.011,5.683-8.055,10.424-15.722,9.759c-7.696-0.737-9.533-4.19-4.903-7.885   c4.57-3.79,10.6-8.447,14.83-9.715C282.579,16.618,285.25,20.064,284.137,25.706z"
   id="path208" />
	<linearGradient
   id="SVGID_2_"
   gradientUnits="userSpaceOnUse"
   x1="317.6128"
   y1="98.4907"
   x2="317.6128"
   y2="57.5769">
		<stop
   offset="0"
   style="stop-color:#005AAA"
   id="stop210" />
		<stop
   offset="1"
   style="stop-color:#146DB6"
   id="stop212" />
	</linearGradient>
	<path
   fill="url(#SVGID_2_)"
   d="M321.648,17.169c6.788,7.109,9.772,13.151,3.259,14.151c-6.33,0.888-14.3-4.297-16.706-11.124   c-2.624-6.785-1.495-13.482,0.892-14.755C311.559,4.155,315.063,9.937,321.648,17.169z"
   id="path215" />
	<linearGradient
   id="SVGID_3_"
   gradientUnits="userSpaceOnUse"
   x1="389.6021"
   y1="119.4131"
   x2="389.6021"
   y2="52.3779">
		<stop
   offset="0"
   style="stop-color:#81C458"
   id="stop217" />
		<stop
   offset="1"
   style="stop-color:#43B649"
   id="stop219" />
	</linearGradient>
	<path
   fill="url(#SVGID_3_)"
   d="M421.938,79.063c13.934,6.802,6.987,24.944-16.159,33.163c-23.431,7.933-47.923-2.348-53.654-14.297   c-5.826-12.09,1.382-21.015,16.352-24.298C383.418,70.738,407.776,71.897,421.938,79.063z"
   id="path222" />
	<linearGradient
   id="SVGID_4_"
   gradientUnits="userSpaceOnUse"
   x1="269.8521"
   y1="129.1821"
   x2="269.8521"
   y2="68.989">
		<stop
   offset="0"
   style="stop-color:#005AAA"
   id="stop224" />
		<stop
   offset="1"
   style="stop-color:#146DB6"
   id="stop226" />
	</linearGradient>
	<path
   fill="url(#SVGID_4_)"
   d="M304.873,21.068c-2.32-6.804-5.698-11-9.049-9.416c-3.311,1.608-6.653,7.583-7.556,13.311   c-0.003,0.013-0.003,0.025-0.005,0.038c-0.915,10.625-7.979,16.371-23.193,14.241c0,0,0.001,0.001,0.002,0.002   c-7.824-0.768-19.891,0.101-27.366,2.029c-7.406,1.743-3.811,8.811,8.918,14.466c12.841,5.548,25.844,2.306,28.226-4.251   c0.005-0.013,0.008-0.025,0.013-0.039c0.001,0.001,0.002,0.003,0.003,0.004c5.52-10.957,12.444-15.151,23.416-16.559   c-0.001,0-0.001-0.001-0.002-0.001C304.911,34.329,307.327,27.819,304.873,21.068z"
   id="path229" />
	<path
   fill="#00B7ED"
   d="M363.73,47.513c-12.67-6.465-26.716-11.04-33.292-10.136c-3.447,0.54-5.727,2.576-6.508,5.564   c-1.779,5.422-7.624,5.772-14.251,1.292c-3.473-2.454-7.302-3.766-10.783-3.573c-6.819,0.523-13.902,5.353-16.117,12.05   c-1.296,3.714,0.725,8.183,5.128,11.614c5.627,5.854,6.18,11.031-3.631,14.843c-5.748,1.877-10.222,5.167-12.158,10.048   c-3.811,9.14,9.837,25.874,32.912,30.257c23.095,4.19,37.682-8.649,32.105-20.621c-2.836-6.301-8.367-11.379-14.923-15.033   c-11.976-7.344-11.271-12.469-5.46-18.457c-0.068,0-0.137-0.001-0.206-0.001c5.919-6.081,10.321-6.437,22.793-1.4   c-0.01-0.013-0.02-0.026-0.028-0.039c6.256,2.516,13.805,3.624,21.153,2.184C375.136,63.036,376.384,53.755,363.73,47.513z    M316.497,65.361c0.013-0.013,0.023-0.026,0.035-0.039c0.005,0.014,0.009,0.026,0.014,0.04   C316.529,65.361,316.513,65.361,316.497,65.361z"
   id="path231" />
	<linearGradient
   id="SVGID_5_"
   gradientUnits="userSpaceOnUse"
   x1="228.3442"
   y1="95.0098"
   x2="228.3442"
   y2="29.9106">
		<stop
   offset="0"
   style="stop-color:#005AAA"
   id="stop233" />
		<stop
   offset="1"
   style="stop-color:#146DB6"
   id="stop235" />
	</linearGradient>
	<path
   fill="url(#SVGID_5_)"
   d="M258.222,84.127c-3.888,9.127-25.022,9.906-43.247-4.652   c-17.892-14.698-21.868-29.995-13.082-30.304c9.021-0.627,26.451,4.854,39.523,10.595   C254.301,65.749,262.281,75.016,258.222,84.127z"
   id="path238" />
</g>

</svg>