<?xml version="1.0" encoding="UTF-8" standalone="no"?>
<!-- Created with Inkscape (http://www.inkscape.org/) -->

<svg
   xmlns:dc="http://purl.org/dc/elements/1.1/"
   xmlns:cc="http://creativecommons.org/ns#"
   xmlns:rdf="http://www.w3.org/1999/02/22-rdf-syntax-ns#"
   xmlns:svg="http://www.w3.org/2000/svg"
   xmlns="http://www.w3.org/2000/svg"
   xmlns:sodipodi="http://sodipodi.sourceforge.net/DTD/sodipodi-0.dtd"
   xmlns:inkscape="http://www.inkscape.org/namespaces/inkscape"
   version="1.1"
   id="svg2"
   xml:space="preserve"
   width="117.98019"
   height="52.457634"
   viewBox="0 0 117.9802 52.457633"
   sodipodi:docname="gfbio_logo.dark.svg"
   inkscape:export-filename="/home/maweber/devel/gfbio_services/layout/material/original_img/GFBio/logo.svg.png"
   inkscape:export-xdpi="29.05806"
   inkscape:export-ydpi="29.05806"
   inkscape:version="0.92.3 (2405546, 2018-03-11)"><metadata
     id="metadata8"><rdf:RDF><cc:Work
         rdf:about=""><dc:format>image/svg+xml</dc:format><dc:type
           rdf:resource="http://purl.org/dc/dcmitype/StillImage" /><dc:title /></cc:Work></rdf:RDF></metadata><defs
     id="defs6"><marker
       inkscape:stockid="Arrow1Lend"
       orient="auto"
       refY="0"
       refX="0"
       id="Arrow1Lend"
       style="overflow:visible"
       inkscape:isstock="true"><path
         id="path4590"
         d="M 0,0 5,-5 -12.5,0 5,5 Z"
         style="fill-rule:evenodd;stroke:#000000;stroke-width:1.00000003pt"
         transform="matrix(-0.8,0,0,-0.8,-10,0)"
         inkscape:connector-curvature="0" /></marker><marker
       inkscape:stockid="Arrow1Lstart"
       orient="auto"
       refY="0"
       refX="0"
       id="Arrow1Lstart"
       style="overflow:visible"
       inkscape:isstock="true"><path
         id="path4587"
         d="M 0,0 5,-5 -12.5,0 5,5 Z"
         style="fill-rule:evenodd;stroke:#000000;stroke-width:1.00000003pt"
         transform="matrix(0.8,0,0,0.8,10,0)"
         inkscape:connector-curvature="0" /></marker><clipPath
       clipPathUnits="userSpaceOnUse"
       id="clipPath18"><path
         d="M 0,218.518 H 435.185 V 0 H 0 Z"
         id="path16"
         inkscape:connector-curvature="0" /></clipPath><clipPath
       clipPathUnits="userSpaceOnUse"
       id="clipPath46"><path
         d="m 278.342,200.653 c -4.23,-1.268 -10.26,-5.925 -14.83,-9.715 v 0 c -4.63,-3.696 -2.793,-7.148 4.903,-7.885 v 0 c 7.667,-0.664 14.711,4.077 15.722,9.759 v 0 c 0.959,4.864 -0.894,8.096 -4.138,8.096 v 0 c -0.518,0 -1.073,-0.083 -1.657,-0.255"
         id="path44"
         inkscape:connector-curvature="0" /></clipPath><linearGradient
       x1="0"
       y1="0"
       x2="1"
       y2="0"
       gradientUnits="userSpaceOnUse"
       gradientTransform="matrix(0,-21.960373,-21.960373,0,272.69385,204.75439)"
       spreadMethod="pad"
       id="linearGradient56"><stop
         style="stop-opacity:1;stop-color:#77cb46"
         offset="0"
         id="stop52" /><stop
         style="stop-opacity:1;stop-color:#45ba3a"
         offset="1"
         id="stop54" /></linearGradient><clipPath
       clipPathUnits="userSpaceOnUse"
       id="clipPath66"><path
         d="m 309.092,213.077 c -2.386,-1.274 -3.515,-7.971 -0.891,-14.756 v 0 c 2.406,-6.826 10.376,-12.011 16.705,-11.124 v 0 c 6.515,1.001 3.53,7.043 -3.258,14.152 v 0 c -5.963,6.549 -9.399,11.908 -11.826,11.908 v 0 c -0.254,0 -0.497,-0.059 -0.73,-0.18"
         id="path64"
         inkscape:connector-curvature="0" /></clipPath><linearGradient
       x1="0"
       y1="0"
       x2="1"
       y2="0"
       gradientUnits="userSpaceOnUse"
       gradientTransform="matrix(0,40.913788,40.913788,0,317.61279,120.02734)"
       spreadMethod="pad"
       id="linearGradient76"><stop
         style="stop-opacity:1;stop-color:#2555ad"
         offset="0"
         id="stop72" /><stop
         style="stop-opacity:1;stop-color:#3368bb"
         offset="1"
         id="stop74" /></linearGradient><clipPath
       clipPathUnits="userSpaceOnUse"
       id="clipPath86"><path
         d="M 368.476,144.888 C 353.507,141.605 346.298,132.68 352.124,120.59 v 0 c 5.732,-11.949 30.224,-22.23 53.655,-14.297 v 0 c 23.147,8.218 30.093,26.36 16.159,33.162 v 0 c -9.482,4.797 -23.531,6.903 -36.267,6.902 v 0 c -6.287,0 -12.256,-0.513 -17.195,-1.469"
         id="path84"
         inkscape:connector-curvature="0" /></clipPath><linearGradient
       x1="0"
       y1="0"
       x2="1"
       y2="0"
       gradientUnits="userSpaceOnUse"
       gradientTransform="matrix(0,67.035156,67.035156,0,389.60205,99.10498)"
       spreadMethod="pad"
       id="linearGradient96"><stop
         style="stop-opacity:1;stop-color:#77cb46"
         offset="0"
         id="stop92" /><stop
         style="stop-opacity:1;stop-color:#45ba3a"
         offset="1"
         id="stop94" /></linearGradient><clipPath
       clipPathUnits="userSpaceOnUse"
       id="clipPath106"><path
         d="m 295.824,206.865 c -3.311,-1.607 -6.654,-7.582 -7.556,-13.31 v 0 c -0.002,-0.013 -0.002,-0.025 -0.005,-0.039 v 0 c -0.915,-10.624 -7.98,-16.37 -23.193,-14.241 v 0 c 0,0 0.001,-0.001 0.002,-0.002 v 0 c -7.824,0.767 -19.891,-0.101 -27.367,-2.029 v 0 c -7.406,-1.743 -3.81,-8.811 8.918,-14.465 v 0 c 12.842,-5.548 25.844,-2.306 28.226,4.25 v 0 c 0.005,0.014 0.008,0.025 0.013,0.039 v 0 c 10e-4,-0.002 0.002,-0.003 0.003,-0.004 v 0 c 5.519,10.957 12.444,15.151 23.416,16.558 v 0 c -0.001,10e-4 -0.001,10e-4 -0.002,0.002 v 0 c 6.632,0.565 9.048,7.074 6.593,13.826 v 0 c -1.989,5.834 -4.756,9.749 -7.616,9.749 v 0 c -0.476,0 -0.954,-0.108 -1.432,-0.334"
         id="path104"
         inkscape:connector-curvature="0" /></clipPath><linearGradient
       x1="0"
       y1="0"
       x2="1"
       y2="0"
       gradientUnits="userSpaceOnUse"
       gradientTransform="matrix(0,60.193176,60.193176,0,269.85205,89.335937)"
       spreadMethod="pad"
       id="linearGradient116"><stop
         style="stop-opacity:1;stop-color:#2555ad"
         offset="0"
         id="stop112" /><stop
         style="stop-opacity:1;stop-color:#3368bb"
         offset="1"
         id="stop114" /></linearGradient><clipPath
       clipPathUnits="userSpaceOnUse"
       id="clipPath126"><path
         d="M 0,218.518 H 435.185 V 0 H 0 Z"
         id="path124"
         inkscape:connector-curvature="0" /></clipPath><clipPath
       clipPathUnits="userSpaceOnUse"
       id="clipPath138"><path
         d="m 201.893,169.347 c -8.785,-0.309 -4.809,-15.606 13.082,-30.304 v 0 c 18.225,-14.558 39.36,-13.779 43.248,-4.652 v 0 c 4.058,9.111 -3.922,18.379 -16.806,24.361 v 0 c -12.384,5.439 -28.679,10.644 -38.03,10.644 v 0 c -0.52,0 -1.018,-0.016 -1.494,-0.049"
         id="path136"
         inkscape:connector-curvature="0" /></clipPath><linearGradient
       x1="0"
       y1="0"
       x2="1"
       y2="0"
       gradientUnits="userSpaceOnUse"
       gradientTransform="matrix(0,65.099136,65.099136,0,228.34424,123.5083)"
       spreadMethod="pad"
       id="linearGradient148"><stop
         style="stop-opacity:1;stop-color:#2555ad"
         offset="0"
         id="stop144" /><stop
         style="stop-opacity:1;stop-color:#3368bb"
         offset="1"
         id="stop146" /></linearGradient></defs><sodipodi:namedview
     pagecolor="#ffffff"
     bordercolor="#666666"
     borderopacity="1"
     objecttolerance="10"
     gridtolerance="10"
     guidetolerance="10"
     inkscape:pageopacity="0"
     inkscape:pageshadow="2"
     inkscape:window-width="3840"
     inkscape:window-height="2107"
     id="namedview4"
     showgrid="false"
     inkscape:zoom="2"
     inkscape:cx="-139.27201"
     inkscape:cy="46.028725"
     inkscape:window-x="0"
     inkscape:window-y="0"
     inkscape:window-maximized="1"
     inkscape:current-layer="g10"
     inkscape:pagecheckerboard="true"
     showborder="false"
     fit-margin-right="-0.1"
     fit-margin-top="0"
     fit-margin-left="0"
     fit-margin-bottom="0" /><g
     id="g10"
     inkscape:groupmode="layer"
     inkscape:label="gfbio_eV_logo"
     transform="matrix(1.3333333,0,0,-1.3333333,-178.73294,59.286913)"><g
   id="g12"
   transform="matrix(0.1890274,0,0,0.1890274,132.66245,4.1537696)"
   style="opacity:1;fill:#666666;stroke-width:62.46108627;stroke-miterlimit:4;stroke-dasharray:none;fill-opacity:1"
   inkscape:export-xdpi="29"
   inkscape:export-ydpi="29"><g
     id="g14"
     clip-path="url(#clipPath18)"
     style="fill:#666666;stroke-width:62.46108627;stroke-miterlimit:4;stroke-dasharray:none;fill-opacity:1"><g
       id="g20"
       transform="translate(58.0737,88.2764)"
       style="fill:#666666;stroke-width:62.46108627;stroke-miterlimit:4;stroke-dasharray:none;fill-opacity:1"><path
         d="m 0,0 c -0.049,-5.27 -1.981,-9.775 -5.797,-13.522 -3.816,-3.749 -8.358,-5.597 -13.626,-5.548 -5.319,0.048 -9.814,1.992 -13.483,5.835 -3.669,3.839 -5.478,8.472 -5.429,13.897 0.048,5.216 1.914,9.633 5.599,13.251 3.683,3.615 8.187,5.402 13.507,5.354 5.371,-0.049 9.93,-1.957 13.678,-5.719 C -1.803,9.784 0.048,5.268 0,0 m 5.684,-63.037 c -0.038,-4.172 -2.273,-7.517 -6.703,-10.033 -4.431,-2.515 -10.376,-3.74 -17.835,-3.672 -16.428,0.15 -24.604,4.659 -24.523,13.525 0.081,8.867 8.832,13.221 26.253,13.062 15.282,-0.139 22.885,-4.433 22.808,-12.882 M -37.622,18.69 c -5.313,-4.723 -8.002,-10.869 -8.071,-18.43 -0.049,-5.321 1.537,-10.173 4.757,-14.557 3.22,-4.386 7.978,-7.545 14.273,-9.48 l -0.003,-0.314 c -9.623,-2.678 -14.458,-6.546 -14.504,-11.603 -0.046,-5.008 3.81,-8.46 11.566,-10.357 l -0.003,-0.312 c -14,-2.115 -21.042,-7.867 -21.127,-17.255 -0.053,-5.79 2.642,-10.471 8.088,-14.041 5.444,-3.571 13.199,-5.401 23.265,-5.492 10.118,-0.093 18.038,1.7 23.756,5.377 5.719,3.677 8.609,8.776 8.669,15.295 0.05,5.529 -1.683,9.98 -5.199,13.349 -3.518,3.37 -10.37,5.389 -20.562,6.056 -10.192,0.666 -16.259,1.635 -18.204,2.904 -1.944,1.27 -2.908,2.947 -2.889,5.034 0.016,1.773 0.787,3.329 2.313,4.673 1.523,1.342 5.268,2.755 11.226,4.24 5.961,1.484 10.734,3.005 14.322,4.565 3.587,1.557 6.688,4.073 9.301,7.545 C 5.966,-10.645 7.3,-5.91 7.354,0.089 7.415,6.765 4.16,13.158 -2.407,19.27 l 16.35,-0.149 0.058,6.259 -28.869,0.263 c -9.858,0.089 -17.444,-2.228 -22.754,-6.953"
         style="fill:#666666;fill-opacity:1;fill-rule:nonzero;stroke:none;stroke-width:62.46108627;stroke-miterlimit:4;stroke-dasharray:none"
         id="path22"
         inkscape:connector-curvature="0" /></g><g
       id="g24"
       transform="translate(96.2632,144.9297)"
       style="fill:#666666;stroke-width:62.46108627;stroke-miterlimit:4;stroke-dasharray:none;fill-opacity:1"><path
         d="m 0,0 c -4.869,-4.781 -7.341,-11.319 -7.416,-19.611 l -0.107,-11.815 -13.3,0.121 -0.058,-6.258 13.3,-0.122 -0.599,-65.718 7.667,-0.07 0.599,65.719 13.926,-0.127 0.057,6.259 -13.925,0.127 0.081,8.92 c 0.134,14.864 6.018,22.243 17.649,22.137 3.494,-0.032 7.815,-0.984 12.963,-2.856 l 0.065,7.198 C 25.965,5.983 21.593,7.04 17.786,7.074 10.797,7.138 4.867,4.779 0,0"
         style="fill:#666666;fill-opacity:1;fill-rule:nonzero;stroke:none;stroke-width:62.46108627;stroke-miterlimit:4;stroke-dasharray:none"
         id="path26"
         inkscape:connector-curvature="0" /></g><g
       id="g28"
       transform="translate(185.9624,55.6963)"
       style="fill:#666666;stroke-width:62.46108627;stroke-miterlimit:4;stroke-dasharray:none;fill-opacity:1"><path
         d="m 0,0 c -6.131,-5.917 -13.84,-8.832 -23.123,-8.748 -5.841,0.054 -11.726,1.228 -17.651,3.525 l 0.397,43.578 c 8.222,9.209 16.608,13.776 25.163,13.699 7.146,-0.066 13.04,-2.858 17.685,-8.377 C 7.115,38.157 9.398,31.146 9.321,22.646 9.237,13.465 6.129,5.917 0,0 m -14.216,58.46 c -9.651,0.088 -18.344,-3.745 -26.083,-11.498 l 0.435,47.645 -7.667,0.071 -0.96,-105.307 c 8.991,-3.682 17.476,-5.559 25.456,-5.631 12.153,-0.111 21.926,3.411 29.32,10.57 7.394,7.156 11.147,16.733 11.256,28.73 0.094,10.327 -2.829,18.791 -8.768,25.392 -5.939,6.598 -13.6,9.942 -22.989,10.028"
         style="fill:#666666;fill-opacity:1;fill-rule:nonzero;stroke:none;stroke-width:62.46108627;stroke-miterlimit:4;stroke-dasharray:none"
         id="path30"
         inkscape:connector-curvature="0" /></g><g
       id="g32"
       transform="translate(220.3667,40.3213)"
       style="fill:#666666;stroke-width:62.46108627;stroke-miterlimit:4;stroke-dasharray:none;fill-opacity:1"><path
         d="M 0,0 7.745,-0.07 8.401,71.907 0.656,71.978 Z"
         style="fill:#666666;fill-opacity:1;fill-rule:nonzero;stroke:none;stroke-width:62.46108627;stroke-miterlimit:4;stroke-dasharray:none"
         id="path34"
         inkscape:connector-curvature="0" /></g><g
       id="g36"
       transform="translate(309.311,87.6357)"
       style="fill:#666666;stroke-width:62.46108627;stroke-miterlimit:4;stroke-dasharray:none;fill-opacity:1"><path
         d="m 0,0 c 1.46,-3.707 2.177,-7.781 2.137,-12.23 -0.078,-8.555 -2.856,-15.636 -8.33,-21.247 -5.478,-5.609 -12.257,-8.377 -20.342,-8.303 -8.136,0.074 -14.905,2.966 -20.303,8.674 -5.399,5.709 -8.059,12.84 -7.981,21.395 0.078,8.606 2.868,15.726 8.371,21.361 2.417,2.476 5.089,4.4 8.014,5.773 -2.28,1.746 -4.362,3.561 -6.212,5.42 -2.696,-1.554 -5.212,-3.489 -7.543,-5.821 -7.081,-7.081 -10.669,-15.967 -10.767,-26.659 -0.097,-10.64 3.33,-19.552 10.28,-26.736 6.949,-7.184 15.641,-10.822 26.072,-10.918 10.432,-0.095 19.163,3.386 26.19,10.442 7.028,7.056 10.591,15.904 10.687,26.544 0.039,4.183 -0.466,8.096 -1.5,11.745 C 5.968,-0.56 3.038,-0.376 0,0"
         style="fill:#666666;fill-opacity:1;fill-rule:nonzero;stroke:none;stroke-width:62.46108627;stroke-miterlimit:4;stroke-dasharray:none"
         id="path38"
         inkscape:connector-curvature="0" /></g></g></g><g
   id="g40"
   transform="matrix(0.1890274,0,0,0.1890274,132.66245,4.1537696)"
   style="opacity:1;fill:#666666;stroke-width:62.46108627;stroke-miterlimit:4;stroke-dasharray:none;fill-opacity:1"
   inkscape:export-xdpi="29"
   inkscape:export-ydpi="29"><g
     id="g42"
     clip-path="url(#clipPath46)"
     style="fill:#666666;stroke-width:62.46108627;stroke-miterlimit:4;stroke-dasharray:none;fill-opacity:1"><g
       id="g48"
       style="fill:#666666;stroke-width:62.46108627;stroke-miterlimit:4;stroke-dasharray:none;fill-opacity:1"><g
         id="g50"
         style="fill:#666666;stroke-width:62.46108627;stroke-miterlimit:4;stroke-dasharray:none;fill-opacity:1"><path
           d="m 278.342,200.653 c -4.23,-1.268 -10.26,-5.925 -14.83,-9.715 v 0 c -4.63,-3.696 -2.793,-7.148 4.903,-7.885 v 0 c 7.667,-0.664 14.711,4.077 15.722,9.759 v 0 c 0.959,4.864 -0.894,8.096 -4.138,8.096 v 0 c -0.518,0 -1.073,-0.083 -1.657,-0.255"
           style="fill:#666666;stroke:none;stroke-width:62.46108627;stroke-miterlimit:4;stroke-dasharray:none;fill-opacity:1"
           id="path58"
           inkscape:connector-curvature="0" /></g></g></g></g><g
   id="g60"
   transform="matrix(0.1890274,0,0,0.1890274,132.66245,4.1537696)"
   style="opacity:1;fill:#666666;stroke-width:62.46108627;stroke-miterlimit:4;stroke-dasharray:none;fill-opacity:1"
   inkscape:export-xdpi="29"
   inkscape:export-ydpi="29"><g
     id="g62"
     clip-path="url(#clipPath66)"
     style="fill:#666666;stroke-width:62.46108627;stroke-miterlimit:4;stroke-dasharray:none;fill-opacity:1"><g
       id="g68"
       style="fill:#666666;stroke-width:62.46108627;stroke-miterlimit:4;stroke-dasharray:none;fill-opacity:1"><g
         id="g70"
         style="fill:#666666;stroke-width:62.46108627;stroke-miterlimit:4;stroke-dasharray:none;fill-opacity:1"><path
           d="m 309.092,213.077 c -2.386,-1.274 -3.515,-7.971 -0.891,-14.756 v 0 c 2.406,-6.826 10.376,-12.011 16.705,-11.124 v 0 c 6.515,1.001 3.53,7.043 -3.258,14.152 v 0 c -5.963,6.549 -9.399,11.908 -11.826,11.908 v 0 c -0.254,0 -0.497,-0.059 -0.73,-0.18"
           style="fill:#666666;stroke:none;stroke-width:62.46108627;stroke-miterlimit:4;stroke-dasharray:none;fill-opacity:1"
           id="path78"
           inkscape:connector-curvature="0" /></g></g></g></g><g
   id="g80"
   transform="matrix(0.1890274,0,0,0.1890274,132.66245,4.1537696)"
   style="opacity:1;fill:#666666;stroke-width:62.46108627;stroke-miterlimit:4;stroke-dasharray:none;fill-opacity:1"
   inkscape:export-xdpi="29"
   inkscape:export-ydpi="29"><g
     id="g82"
     clip-path="url(#clipPath86)"
     style="fill:#666666;stroke-width:62.46108627;stroke-miterlimit:4;stroke-dasharray:none;fill-opacity:1"><g
       id="g88"
       style="fill:#666666;stroke-width:62.46108627;stroke-miterlimit:4;stroke-dasharray:none;fill-opacity:1"><g
         id="g90"
         style="fill:#666666;stroke-width:62.46108627;stroke-miterlimit:4;stroke-dasharray:none;fill-opacity:1"><path
           d="M 368.476,144.888 C 353.507,141.605 346.298,132.68 352.124,120.59 v 0 c 5.732,-11.949 30.224,-22.23 53.655,-14.297 v 0 c 23.147,8.218 30.093,26.36 16.159,33.162 v 0 c -9.482,4.797 -23.531,6.903 -36.267,6.902 v 0 c -6.287,0 -12.256,-0.513 -17.195,-1.469"
           style="fill:#666666;stroke:none;stroke-width:62.46108627;stroke-miterlimit:4;stroke-dasharray:none;fill-opacity:1"
           id="path98"
           inkscape:connector-curvature="0" /></g></g></g></g><g
   id="g100"
   transform="matrix(0.1890274,0,0,0.1890274,132.66245,4.1537696)"
   style="opacity:1;fill:#666666;stroke-width:62.46108627;stroke-miterlimit:4;stroke-dasharray:none;fill-opacity:1"
   inkscape:export-xdpi="29"
   inkscape:export-ydpi="29"><g
     id="g102"
     clip-path="url(#clipPath106)"
     style="fill:#666666;stroke-width:62.46108627;stroke-miterlimit:4;stroke-dasharray:none;fill-opacity:1"><g
       id="g108"
       style="fill:#666666;stroke-width:62.46108627;stroke-miterlimit:4;stroke-dasharray:none;fill-opacity:1"><g
         id="g110"
         style="fill:#666666;stroke-width:62.46108627;stroke-miterlimit:4;stroke-dasharray:none;fill-opacity:1"><path
           d="m 295.824,206.865 c -3.311,-1.607 -6.654,-7.582 -7.556,-13.31 v 0 c -0.002,-0.013 -0.002,-0.025 -0.005,-0.039 v 0 c -0.915,-10.624 -7.98,-16.37 -23.193,-14.241 v 0 c 0,0 0.001,-0.001 0.002,-0.002 v 0 c -7.824,0.767 -19.891,-0.101 -27.367,-2.029 v 0 c -7.406,-1.743 -3.81,-8.811 8.918,-14.465 v 0 c 12.842,-5.548 25.844,-2.306 28.226,4.25 v 0 c 0.005,0.014 0.008,0.025 0.013,0.039 v 0 c 10e-4,-0.002 0.002,-0.003 0.003,-0.004 v 0 c 5.519,10.957 12.444,15.151 23.416,16.558 v 0 c -0.001,10e-4 -0.001,10e-4 -0.002,0.002 v 0 c 6.632,0.565 9.048,7.074 6.593,13.826 v 0 c -1.989,5.834 -4.756,9.749 -7.616,9.749 v 0 c -0.476,0 -0.954,-0.108 -1.432,-0.334"
           style="fill:#666666;stroke:none;stroke-width:62.46108627;stroke-miterlimit:4;stroke-dasharray:none;fill-opacity:1"
           id="path118"
           inkscape:connector-curvature="0" /></g></g></g></g><g
   id="g120"
   transform="matrix(0.1890274,0,0,0.1890274,132.66245,4.1537696)"
   style="opacity:1;fill:#666666;stroke-width:62.46108627;stroke-miterlimit:4;stroke-dasharray:none;fill-opacity:1"
   inkscape:export-xdpi="29"
   inkscape:export-ydpi="29"><g
     id="g122"
     clip-path="url(#clipPath126)"
     style="fill:#666666;stroke-width:62.46108627;stroke-miterlimit:4;stroke-dasharray:none;fill-opacity:1"><g
       id="g128"
       transform="translate(316.4966,153.1572)"
       style="fill:#666666;stroke-width:62.46108627;stroke-miterlimit:4;stroke-dasharray:none;fill-opacity:1"><path
         d="M 0,0 C 0.013,0.013 0.023,0.026 0.035,0.039 0.04,0.025 0.044,0.013 0.049,0 0.032,0 0.017,0 0,0 M 47.233,17.848 C 34.563,24.313 20.518,28.888 13.941,27.984 10.494,27.444 8.215,25.408 7.434,22.419 5.654,16.997 -0.19,16.647 -6.817,21.127 c -3.473,2.454 -7.302,3.766 -10.784,3.574 -6.819,-0.524 -13.902,-5.353 -16.117,-12.051 -1.296,-3.714 0.725,-8.183 5.128,-11.614 5.627,-5.853 6.18,-11.031 -3.631,-14.843 -5.748,-1.877 -10.221,-5.168 -12.158,-10.048 -3.81,-9.141 9.837,-25.874 32.912,-30.257 23.095,-4.191 37.682,8.649 32.106,20.621 -2.836,6.301 -8.368,11.379 -14.923,15.033 C -6.26,-11.114 -5.556,-5.99 0.256,-0.001 0.188,-0.002 0.119,0 0.05,0 c 5.919,6.081 10.321,6.436 22.793,1.4 -0.01,0.013 -0.02,0.026 -0.029,0.039 6.256,-2.516 13.805,-3.624 21.154,-2.184 14.672,3.07 15.92,12.351 3.265,18.593"
         style="fill:#666666;fill-opacity:1;fill-rule:nonzero;stroke:none;stroke-width:62.46108627;stroke-miterlimit:4;stroke-dasharray:none"
         id="path130"
         inkscape:connector-curvature="0" /></g></g></g><g
   id="g132"
   transform="matrix(0.1890274,0,0,0.1890274,132.66245,4.1537696)"
   style="opacity:1;fill:#666666;stroke-width:62.46108627;stroke-miterlimit:4;stroke-dasharray:none;fill-opacity:1"
   inkscape:export-xdpi="29"
   inkscape:export-ydpi="29"><g
     id="g134"
     clip-path="url(#clipPath138)"
     style="fill:#666666;stroke-width:62.46108627;stroke-miterlimit:4;stroke-dasharray:none;fill-opacity:1"><g
       id="g140"
       style="fill:#666666;stroke-width:62.46108627;stroke-miterlimit:4;stroke-dasharray:none;fill-opacity:1"><g
         id="g142"
         style="fill:#666666;stroke-width:62.46108627;stroke-miterlimit:4;stroke-dasharray:none;fill-opacity:1"><path
           d="m 201.893,169.347 c -8.785,-0.309 -4.809,-15.606 13.082,-30.304 v 0 c 18.225,-14.558 39.36,-13.779 43.248,-4.652 v 0 c 4.058,9.111 -3.922,18.379 -16.806,24.361 v 0 c -12.384,5.439 -28.679,10.644 -38.03,10.644 v 0 c -0.52,0 -1.018,-0.016 -1.494,-0.049"
           style="fill:#666666;stroke:none;stroke-width:62.46108627;stroke-miterlimit:4;stroke-dasharray:none;fill-opacity:1"
           id="path150"
           inkscape:connector-curvature="0" /></g></g></g></g>

</g></svg>